<svg width="309" height="351" viewBox="0 0 309 351" fill="none" xmlns="http://www.w3.org/2000/svg">
<path fill-rule="evenodd" clip-rule="evenodd" d="M179.113 196.279H308.725V270.246H179.113V196.279ZM192.685 207.816H294.474V258.71H192.685V207.816ZM222.542 220.709H208.292V246.496H222.542V220.709ZM251.044 220.709H236.794V246.496H251.044V220.709ZM265.295 220.709H279.546V246.496H265.295V220.709Z" fill="#22BAC7"/>
<path fill-rule="evenodd" clip-rule="evenodd" d="M84.4668 115.527H214.079V189.494H84.4668V115.527ZM98.0381 127.063H199.828V177.958H98.0381V127.063ZM156.398 139.956H142.147V165.743H156.398V139.956ZM127.898 139.956H113.647V165.743H127.898V139.956ZM170.65 139.956H184.901V165.743H170.65V139.956Z" fill="#22BAC7"/>
<path fill-rule="evenodd" clip-rule="evenodd" d="M0 196.279H129.612V270.246H0V196.279ZM13.5704 207.816H115.36V258.71H13.5704V207.816ZM43.4302 220.709H29.1797V246.496H43.4302V220.709ZM71.9312 220.709H57.6807V246.496H71.9312V220.709ZM86.1819 220.709H100.432V246.496H86.1819V220.709Z" fill="#22BAC7"/>
<path fill-rule="evenodd" clip-rule="evenodd" d="M81.002 277.032H210.614V351H81.002V277.032ZM94.5738 288.569H196.363V339.463H94.5738V288.569ZM124.432 301.462H110.181V327.249H124.432V301.462ZM152.932 301.462H138.682V327.249H152.932V301.462ZM167.183 301.462H181.433V327.249H167.183V301.462Z" fill="#22BAC7"/>
<path fill-rule="evenodd" clip-rule="evenodd" d="M165.56 12.0405V26.6303L155.721 36.8092L155.901 59.203H174.383V49.024H183.883V68.7033H174.383V68.7034H155.978L156.05 77.7121C161.276 80.2349 164.881 85.5843 164.881 91.7757C164.881 93.1608 164.701 94.5039 164.362 95.7825L164.541 95.5079L196.774 115.527H179.131L159.65 103.435C156.892 105.891 153.257 107.383 149.273 107.383C145.18 107.383 141.454 105.807 138.67 103.229L118.397 115.526H101.432L134.073 95.3357C133.807 94.1922 133.666 93.0004 133.666 91.7757C133.666 85.7224 137.111 80.4741 142.149 77.8852V68.7034H124.167V59.203H142.149V36.4699L131.97 26.6303V13.0584L141.703 0.659912L143.642 3.33408L144.184 18.8264L148.595 22.5587L153.685 18.8264V3.33408L155.721 0.659912L165.56 12.0405ZM145.542 59.203V34.7735L135.363 24.9338V14.0763L140.452 6.99994V20.1836L148.595 27.3089L157.417 20.1836V6.99994L162.167 14.0763V24.9338L152.328 34.7735V59.203L145.542 59.203ZM124.165 49.024H114.665V68.7033H124.165V49.024ZM158.094 91.7756C158.094 96.6478 154.144 100.597 149.272 100.597C144.4 100.597 140.45 96.6478 140.45 91.7756C140.45 86.9035 144.4 82.9539 149.272 82.9539C154.144 82.9539 158.094 86.9035 158.094 91.7756Z" fill="#22BAC7"/>
</svg>
