<svg width="1800" height="511" viewBox="0 0 1800 511" fill="none" xmlns="http://www.w3.org/2000/svg">
<mask id="mask0" style="mask-type:alpha" maskUnits="userSpaceOnUse" x="0" y="0" width="1800" height="511">
<rect width="1800" height="511" fill="#12172C"/>
</mask>
<g mask="url(#mask0)">
<g opacity="0.6">
<path opacity="0.8" d="M1110.63 608.889V530.585H1097.49V608.889H1084.35V478.389H1057.88V373.976H741.229V478.389H714.787V608.889H701.645V530.585H688.368V608.889H675.225V634.465H701.622V647.464H741.207V634.465H754.349V647.464H793.934V634.465H1005.07V647.464H1044.65V634.465H1057.79V647.464H1097.38V634.465H1123.77V608.889H1110.63Z" stroke="#03BAC8" stroke-width="2" stroke-miterlimit="10"/>
<path opacity="0.8" d="M1185.05 643.488V537.586H1167.27V643.488H1149.5V466.994H1113.7V325.78H685.447V466.994H649.685V643.488H631.911V537.586H613.954V643.488H596.18V678.078H631.88V695.659H685.416V678.078H703.191V695.659H756.727V678.078H1042.27V695.659H1095.81V678.078H1113.58V695.659H1167.12V678.078H1202.82V643.488H1185.05Z" stroke="#0D97B3" stroke-width="2" stroke-miterlimit="10"/>
<path opacity="0.8" d="M1259.46 678.088V544.588H1237.05V678.088H1214.64V455.599H1169.53V277.585H629.665V455.599H584.584V678.088H562.178V544.588H539.541V678.088H517.135V721.692H562.139V743.855H629.626V721.692H652.033V743.855H719.521V721.692H1079.48V743.855H1146.97V721.692H1169.37V743.855H1236.86V721.692H1281.86V678.088H1259.46Z" stroke="#157AA0" stroke-width="2" stroke-miterlimit="10"/>
<path opacity="0.8" d="M1333.87 712.687V551.589H1306.83V712.687H1279.79V444.205H1225.35V229.39H573.883V444.205H519.482V712.687H492.444V551.589H465.128V712.687H438.09V765.306H492.398V792.05H573.837V765.306H600.875V792.05H682.314V765.306H1116.68V792.05H1198.12V765.306H1225.16V792.05H1306.6V765.306H1360.91V712.687H1333.87Z" stroke="#185F8E" stroke-width="2" stroke-miterlimit="10"/>
<path opacity="0.8" d="M1408.28 747.287V558.591H1376.61V747.287H1344.94V432.81H1281.17V181.195H518.101V432.81H454.381V747.287H422.711V558.591H390.716V747.287H359.045V808.92H422.657V840.245H518.047V808.92H549.717V840.245H645.108V808.92H1153.89V840.245H1249.28V808.92H1280.95V840.245H1376.34V808.92H1439.95V747.287H1408.28Z" stroke="#19467E" stroke-width="2" stroke-miterlimit="10"/>
<path opacity="0.8" d="M1482.7 781.886V565.592H1446.39V781.886H1410.09V421.415H1336.99V133H462.319V421.415H389.279V781.886H352.977V565.592H316.303V781.886H280V852.533H352.915V888.441H462.257V852.533H498.559V888.441H607.902V852.533H1191.1V888.441H1300.44V852.533H1336.74V888.441H1446.09V852.533H1519V781.886H1482.7Z" stroke="#1C2C6F" stroke-width="2" stroke-miterlimit="10"/>
</g>
</g>
</svg>
