<svg xmlns="http://www.w3.org/2000/svg" width="251" height="192" viewBox="0 0 251 192">
  <metadata><?xpacket begin="﻿" id="W5M0MpCehiHzreSzNTczkc9d"?>
<x:xmpmeta xmlns:x="adobe:ns:meta/" x:xmptk="Adobe XMP Core 5.6-c140 79.160451, 2017/05/06-01:08:21        ">
   <rdf:RDF xmlns:rdf="http://www.w3.org/1999/02/22-rdf-syntax-ns#">
      <rdf:Description rdf:about=""/>
   </rdf:RDF>
</x:xmpmeta>
                                                                                                    
                                                                                                    
                                                                                                    
                                                                                                    
                                                                                                    
                                                                                                    
                                                                                                    
                                                                                                    
                                                                                                    
                                                                                                    
                                                                                                    
                                                                                                    
                                                                                                    
                                                                                                    
                                                                                                    
                                                                                                    
                                                                                                    
                                                                                                    
                                                                                                    
                                                                                                    
                           
<?xpacket end="w"?></metadata>
<defs>
    <style>
      .cls-1 {
        fill: #09bac8;
        fill-rule: evenodd;
      }
    </style>
  </defs>
  <path class="cls-1" d="M251,89.907L202.326,62.181,202.008,62,46,151.528v12.563L94.995,192l156-89.529V89.907ZM202.008,63.469l47.065,26.809-133.4,76.555L94.994,178.7,71.758,165.468,47.926,151.891ZM94.353,190.166L47.282,163.353V152.994l47.071,26.813v10.359ZM202.159,68.245L57.553,151.308l-0.969.556L67.429,158,202.166,80.94l27.56,15.269,10.844-6.228Zm27.557,26.5L202.8,79.833V70.075l35.19,19.913Z"/>
  <path id="Shape_38_copy" data-name="Shape 38 copy" class="cls-1" d="M162,49.32L128.284,30.126,128.064,30,20,91.981v8.7L53.938,120,162,58.019v-8.7Zm-33.935-18.3,32.6,18.56-92.4,53L53.937,110.8l-16.095-9.164-16.508-9.4ZM53.493,118.73L20.888,100.168V93l32.605,18.563v7.171Zm74.676-84.407L28,91.829l-0.671.385,7.511,4.247,93.331-53.348,19.09,10.571,7.511-4.311Zm19.088,18.345L128.614,42.346V35.59L152.99,49.377Z"/>
  <path id="Shape_38_copy_2" data-name="Shape 38 copy 2" class="cls-1" d="M95,13.1L72.444,0.085,72.3,0,0,42.009v5.9L22.705,61,95,18.991V13.1ZM72.3,0.69l21.81,12.579L32.29,49.191,22.7,54.76,11.937,48.55,0.893,42.18ZM22.408,60.139L0.594,47.558V42.7L22.408,55.279v4.86ZM72.366,2.93L5.354,41.906,4.9,42.167,9.93,45.046,72.37,8.887l12.772,7.165,5.025-2.923ZM85.137,15.364l-12.473-7V3.789l16.308,9.344Z"/>
</svg>
