<svg width="61" height="69" viewBox="0 0 61 69" fill="none" xmlns="http://www.w3.org/2000/svg">
<path d="M45.6393 8.56213H10.5312V69.0001H60.6856V23.6716L45.6393 8.56213ZM55.6702 63.9636H15.5467V13.5986H43.1316V26.1899H55.6702V63.9636Z" fill="#22BAC7"/>
<path d="M39.8745 32.2336H28.339V38.7811H26.082V51.1205H42.1314V38.7811H39.8745V32.2336ZM34.1067 47.0913C33.1036 47.0913 32.1006 46.084 32.1006 45.0767C32.1006 44.0694 33.1036 43.0621 34.1067 43.0621C35.1098 43.0621 36.1129 44.0694 36.1129 45.0767C36.1129 46.084 35.3606 47.0913 34.1067 47.0913ZM39.1222 38.7811H29.5928V33.4928H39.1222V38.7811V38.7811Z" fill="#22BAC7"/>
<path d="M31.5972 0H5.51698H0V5.54015V31.7299H5.51698V5.54015H31.5972V0Z" fill="#22BAC7"/>
</svg>
