<svg width="77" height="83" viewBox="0 0 77 83" fill="none" xmlns="http://www.w3.org/2000/svg">
<path fill-rule="evenodd" clip-rule="evenodd" d="M23.4162 0H17.8125V11.6078H23.4159V11.6079H35.4252V16.4448C31.7108 17.6302 29.0208 21.1094 29.0208 25.2169C29.0208 25.9392 29.104 26.6421 29.2613 27.3165L10.0074 39.2262H0V82.8553H76.4511V39.2262H66.2437L47.2312 27.4184L47.1278 27.577C47.327 26.8238 47.4331 26.0327 47.4331 25.2169C47.4331 21.1095 44.7432 17.6304 41.029 16.4449V11.6079H53.0357V11.6078H58.6394V0H53.0357V6.00414L23.4162 6.00414V0ZM55.8368 39.2262L44.3469 32.0945C42.7203 33.543 40.5764 34.423 38.227 34.423C35.8123 34.423 33.6148 33.4934 31.9727 31.9725L20.0141 39.2262H55.8368ZM43.4296 25.2168C43.4296 28.0906 41.1 30.4203 38.2262 30.4203C35.3524 30.4203 33.0227 28.0906 33.0227 25.2168C33.0227 22.343 35.3524 20.0134 38.2262 20.0134C41.1 20.0134 43.4296 22.343 43.4296 25.2168ZM68.0451 46.0307H8.00502V76.0507H68.0451V46.0307ZM17.2109 53.6357H25.6165V68.8459H17.2109V53.6357ZM34.0222 53.6358H42.4278V68.846H34.0222V53.6358ZM59.2415 53.6358H50.8359V68.846H59.2415V53.6358Z" fill="#22BAC7"/>
</svg>
