<?xml version="1.0" encoding="utf-8"?>
<!-- Generator: Adobe Illustrator 22.0.1, SVG Export Plug-In . SVG Version: 6.00 Build 0)  -->
<svg version="1.1" id="Layer_1" xmlns="http://www.w3.org/2000/svg" xmlns:xlink="http://www.w3.org/1999/xlink" x="0px" y="0px"
	 viewBox="0 0 50 52" style="enable-background:new 0 0 50 52;" xml:space="preserve">
<style type="text/css">
	.st0{fill:#28BD46;}
</style>
<path id="Forma_1" class="st0" d="M22.2,14.7c-2.3,0.7-4.2,2.1-5.5,4.1c-0.2,0.3-0.3,0.7-0.3,1v-3.5H15v5.3h5.3v-1.3h-3
	c2.2-4.3,7.3-6,11.6-3.8c2.1,1.1,3.7,3,4.4,5.3l1.3-0.4C33,16.1,27.4,13.1,22.2,14.7z M29.7,26.9v1.3h3c-2.2,4.3-7.3,6-11.6,3.8
	c-2.1-1.1-3.7-3-4.4-5.3l-1.3,0.4c1.6,5.3,7.2,8.3,12.4,6.7c2.3-0.7,4.3-2.2,5.6-4.2c0.1-0.3,0.2-0.6,0.2-0.8v3.5H35v-5.3L29.7,26.9
	L29.7,26.9z"/>
<g>
	<path class="st0" d="M0,51.9V8.2l25.7-8.1L50,7.2v43.7l-24.3-6.1L0,51.9z M1.9,9.6v39.8l23.8-6.5l0.2,0.1l22.1,5.5V8.6L25.7,2.1
		L1.9,9.6z"/>
</g>
</svg>
