<?xml version="1.0" encoding="utf-8"?>
<!-- Generator: Adobe Illustrator 22.0.1, SVG Export Plug-In . SVG Version: 6.00 Build 0)  -->
<svg version="1.1" id="Layer_1" xmlns="http://www.w3.org/2000/svg" xmlns:xlink="http://www.w3.org/1999/xlink" x="0px" y="0px"
	 viewBox="0 0 52 52" style="enable-background:new 0 0 52 52;" xml:space="preserve">
<style type="text/css">
	.st0{fill:#FEDD55;}
</style>
<g>
	<path class="st0" d="M26,52C11.7,52,0,40.3,0,26C0,11.7,11.7,0,26,0c14.3,0,26,11.7,26,26C52,40.3,40.3,52,26,52z M26,2
		C12.8,2,2,12.8,2,26s10.8,24,24,24s24-10.8,24-24S39.2,2,26,2z"/>
</g>
<path id="Forma_1" class="st0" d="M30,20.5c0.7,0,1.2,0.5,1.2,1.2s-0.5,1.2-1.2,1.2c-0.7,0-1.2-0.5-1.2-1.2
	C28.8,21,29.3,20.5,30,20.5C30,20.5,30,20.5,30,20.5z M35.3,22.7C34.8,21.3,34,20,33,19c-1-1-2.3-1.8-3.6-2.3
	c-1.1-0.4-2.3-0.2-3.2,0.7l-2.9,2.9c-0.9,0.9-1.1,2.2-0.6,3.3c0.2,0.3,0.3,0.7,0.5,1L16.7,31c-0.1,0.1-0.2,0.3-0.2,0.5v3.3
	c0,0.4,0.3,0.7,0.7,0.7l0,0h3.3c0.4,0,0.7-0.3,0.7-0.7l0,0v-1.3h1.3c0.4,0,0.7-0.3,0.7-0.7l0,0v-1.3h1.3c0.4,0,0.7-0.3,0.7-0.7
	s-0.3-0.7-0.7-0.7h-2.1c-0.4,0-0.7,0.3-0.7,0.7c0,0,0,0,0,0v1.3h-1.3c-0.4,0-0.7,0.3-0.7,0.7l0,0V34H18v-2.2l6.6-6.6
	c0.2-0.2,0.3-0.6,0.1-0.9c-0.3-0.4-0.5-0.9-0.7-1.3c-0.2-0.6-0.1-1.2,0.3-1.6l2.9-2.9c0.4-0.4,1-0.5,1.6-0.3c1.2,0.4,2.2,1.1,3.1,2
	c0.9,0.9,1.6,2,2,3.2c0.2,0.5,0.1,1.2-0.3,1.6l-2.9,2.9c-0.4,0.4-1.1,0.6-1.6,0.3c-0.5-0.2-0.9-0.4-1.3-0.7c-0.3-0.2-0.8-0.1-1,0.2
	c-0.2,0.3-0.1,0.8,0.2,1c0.5,0.3,1,0.6,1.5,0.8c1.1,0.5,2.4,0.2,3.3-0.6l2.9-2.9C35.5,25,35.7,23.8,35.3,22.7z"/>
</svg>
