<?xml version="1.0" encoding="utf-8"?>
<!-- Generator: Adobe Illustrator 22.0.1, SVG Export Plug-In . SVG Version: 6.00 Build 0)  -->
<svg version="1.1" id="Layer_1" xmlns="http://www.w3.org/2000/svg" xmlns:xlink="http://www.w3.org/1999/xlink" x="0px" y="0px"
	 viewBox="0 0 52 62" style="enable-background:new 0 0 52 62;" xml:space="preserve">
<style type="text/css">
	.st0{fill:#3EC1C8;}
</style>
<g id="Polygon_1">
	<path class="st0" d="M26,61.2L0,46.1V15.9L26,0.8l26,15.1v30.2L26,61.2z M2,44.9l24,13.9l24-13.9V17.1L26,3.2L2,17.1V44.9z"/>
</g>
<path class="st0" d="M35.9,21.5H16.1c-0.9,0-1.6,0.7-1.6,1.6v15.8c0,0.9,0.8,1.6,1.6,1.6h19.7c0.9,0,1.6-0.7,1.6-1.6V23.1
	C37.4,22.2,36.7,21.5,35.9,21.5z M22.4,22.7c0.4,0,0.8,0.4,0.8,0.8s-0.4,0.8-0.8,0.8c-0.4,0-0.8-0.4-0.8-0.8
	C21.4,23.1,21.9,22.7,22.4,22.7z M19.9,22.7c0.4,0,0.8,0.4,0.8,0.8s-0.4,0.8-0.8,0.8c-0.4,0-0.8-0.4-0.8-0.8
	C18.9,23.1,19.4,22.7,19.9,22.7z M17.4,22.7c0.4,0,0.8,0.4,0.8,0.8s-0.4,0.8-0.8,0.8c-0.4,0-0.8-0.4-0.8-0.8S16.9,22.7,17.4,22.7z
	 M35.9,38.9H16.1V25.5h19.7V38.9z M35.9,23.9H24.4v-0.8h11.5V23.9z"/>
</svg>
