<svg xmlns="http://www.w3.org/2000/svg" width="382" height="350" viewBox="0 0 382 350">
  <metadata><?xpacket begin="﻿" id="W5M0MpCehiHzreSzNTczkc9d"?>
<x:xmpmeta xmlns:x="adobe:ns:meta/" x:xmptk="Adobe XMP Core 5.6-c140 79.160451, 2017/05/06-01:08:21        ">
   <rdf:RDF xmlns:rdf="http://www.w3.org/1999/02/22-rdf-syntax-ns#">
      <rdf:Description rdf:about=""/>
   </rdf:RDF>
</x:xmpmeta>
                                                                                                    
                                                                                                    
                                                                                                    
                                                                                                    
                                                                                                    
                                                                                                    
                                                                                                    
                                                                                                    
                                                                                                    
                                                                                                    
                                                                                                    
                                                                                                    
                                                                                                    
                                                                                                    
                                                                                                    
                                                                                                    
                                                                                                    
                                                                                                    
                                                                                                    
                                                                                                    
                           
<?xpacket end="w"?></metadata>
<defs>
    <style>
      .cls-1 {
        fill-opacity: 0;
        stroke: #fedd5a;
        stroke-linejoin: round;
        stroke-width: 6px;
      }

      .cls-2, .cls-4 {
        fill: #fedd55;
      }

      .cls-3 {
        fill: #12162d;
      }

      .cls-4, .cls-5 {
        fill-rule: evenodd;
      }

      .cls-5 {
        fill: #fffdcc;
      }
    </style>
  </defs>
  <ellipse class="cls-1" cx="196.266" cy="151.812" rx="111.859" ry="111.75"/>
  <circle class="cls-2" cx="195.75" cy="152.328" r="78.625"/>
  <rect class="cls-3" x="162.5" y="140.219" width="67.531" height="51.656"/>
  <circle class="cls-2" cx="196.281" cy="166.563" r="8.438"/>
  <rect class="cls-3" x="172" y="112.812" width="48.562" height="27.407"/>
  <rect id="Rectangle_12_copy" data-name="Rectangle 12 copy" class="cls-2" x="180.438" y="120.188" width="31.656" height="20.031"/>
  <path class="cls-4" d="M316.683,297.026l-1.349-5.886h62.618l-1.476,5.886H316.683Zm4.749-11.773-1.293-5.885h53.009l-1.294,5.885H321.432ZM311.3,302.911l6,47.089h58.529L382,302.911H311.3Zm11.142,41.206-3.594-29.433h55.56L370.7,344.117H322.44Zm32.434-11.772a3.084,3.084,0,0,0,2.869-2.943,2.617,2.617,0,0,0-2.562-2.943,2.964,2.964,0,0,0-2.87,2.943A2.715,2.715,0,0,0,354.874,332.345Zm-27.529-11.772,2.3,17.655h34l2.3-17.655H327.345Zm33.939,14.715H332.105l-1.352-11.775h31.884Zm-23.166-8.829a2.617,2.617,0,0,0-2.563,2.943,3.085,3.085,0,0,0,2.869,2.943,2.719,2.719,0,0,0,2.563-2.943A2.962,2.962,0,0,0,338.118,326.459Zm5.83,2.943a2.8,2.8,0,0,0,2.639,2.943l0.062-.015,0.062,0.015a2.8,2.8,0,0,0,2.64-2.943A2.71,2.71,0,1,0,343.948,329.4Z"/>
  <path id="Shape_79_copy" data-name="Shape 79 copy" class="cls-5" d="M31.134,298.87l-0.926-4.041H73.2l-1.013,4.041H31.134Zm3.26-8.082-0.888-4.041H69.9l-0.888,4.041H34.394Zm-6.958,12.123,4.116,32.33H71.737l4.241-32.33H27.437ZM35.086,331.2l-2.468-20.208H70.764L68.217,331.2H35.086Zm22.268-8.083a2.118,2.118,0,0,0,1.97-2.02,1.8,1.8,0,0,0-1.76-2.02,2.034,2.034,0,0,0-1.97,2.02A1.864,1.864,0,0,0,57.354,323.119Zm-18.9-8.082,1.582,12.121H63.379l1.582-12.121H38.453Zm23.3,10.1H41.722l-0.928-8.084h21.89ZM45.85,319.079a1.8,1.8,0,0,0-1.76,2.02,2.118,2.118,0,0,0,1.97,2.02,1.866,1.866,0,0,0,1.76-2.02A2.033,2.033,0,0,0,45.85,319.079Zm4,2.02a1.925,1.925,0,0,0,1.812,2.02l0.042-.01,0.042,0.01a1.925,1.925,0,0,0,1.812-2.02A1.86,1.86,0,1,0,49.853,321.1Z"/>
  <path class="cls-4" d="M0,0V37.952H75.978V0H0ZM69.646,31.627H6.331V6.325H69.646v25.3ZM22.16,18.976a3.166,3.166,0,1,1-3.166-3.163A3.165,3.165,0,0,1,22.16,18.976Zm12.663,0a3.166,3.166,0,1,1-3.166-3.163A3.165,3.165,0,0,1,34.823,18.976Zm12.663,0a3.166,3.166,0,1,1-3.166-3.163A3.165,3.165,0,0,1,47.486,18.976Zm12.663,0a3.166,3.166,0,1,1-3.166-3.163A3.165,3.165,0,0,1,60.149,18.976Z"/>
  <path class="cls-5" d="M351.76,37.252a4.271,4.271,0,0,0,4-4.042,3.614,3.614,0,0,0-3.576-4.041,4.1,4.1,0,0,0-4,4.041A3.75,3.75,0,0,0,351.76,37.252ZM313.345,21.085l3.215,24.245h47.446l3.215-24.245H313.345Zm47.36,20.208H319.988L318.1,25.122h44.491Zm-31.9-4.041a3.755,3.755,0,0,0,3.576-4.042,4.1,4.1,0,0,0-4-4.041A3.614,3.614,0,0,0,324.8,33.21,4.271,4.271,0,0,0,328.806,37.252Zm11.391,0,0.086-.02,0.086,0.02a3.876,3.876,0,0,0,3.684-4.042,3.777,3.777,0,1,0-7.54,0A3.876,3.876,0,0,0,340.2,37.252Z"/>
</svg>
