<svg xmlns="http://www.w3.org/2000/svg" width="380" height="387" viewBox="0 0 380 387">
  <metadata><?xpacket begin="﻿" id="W5M0MpCehiHzreSzNTczkc9d"?>
<x:xmpmeta xmlns:x="adobe:ns:meta/" x:xmptk="Adobe XMP Core 5.6-c140 79.160451, 2017/05/06-01:08:21        ">
   <rdf:RDF xmlns:rdf="http://www.w3.org/1999/02/22-rdf-syntax-ns#">
      <rdf:Description rdf:about=""/>
   </rdf:RDF>
</x:xmpmeta>
                                                                                                    
                                                                                                    
                                                                                                    
                                                                                                    
                                                                                                    
                                                                                                    
                                                                                                    
                                                                                                    
                                                                                                    
                                                                                                    
                                                                                                    
                                                                                                    
                                                                                                    
                                                                                                    
                                                                                                    
                                                                                                    
                                                                                                    
                                                                                                    
                                                                                                    
                                                                                                    
                           
<?xpacket end="w"?></metadata>
<defs>
    <style>
      .cls-1 {
        fill: #28bd46;
      }

      .cls-1, .cls-2 {
        fill-rule: evenodd;
      }

      .cls-2 {
        fill: #9cdb9f;
      }
    </style>
  </defs>
  <path class="cls-1" d="M168.643,194.936l12.21-12.158V212.86l-9.916,9.875L190.282,242l19.346-19.265-9.481-9.441V182.778l12.21,12.158L226,181.351,190.5,146,155,181.35Z"/>
  <path id="Shape_63_copy" data-name="Shape 63 copy" class="cls-2" d="M110.726,159.959l6.018-5.953v14.727l-4.888,4.835L121.392,183l9.537-9.432-4.673-4.623V154.006l6.018,5.953L139,153.307,121.5,136,104,153.307Z"/>
  <path id="Shape_63_copy_2" data-name="Shape 63 copy 2" class="cls-2" d="M239.726,223.958l6.018-5.952v14.727l-4.888,4.835L250.392,247l9.537-9.432-4.673-4.623V218.006l6.018,5.952L268,217.307,250.5,200,233,217.307Z"/>
  <path class="cls-1" d="M224.343,323.9L190,342.653,155.657,323.9l-1.452-.795L190,302.589l35.795,20.5ZM83.484,127.9L47.413,147.6v-34.51l36.071-19.7V127.9ZM41.739,235.389l35.8,20.511-1.452.795L41.739,275.454,7.4,256.7,5.944,255.9ZM148.255,64.711V30.2l36.071,19.713v34.5Zm83.49,0-36.071,19.7v-34.5l36.071-19.707v34.5Zm100.836,48.376V147.6l-36.064-19.7V93.388ZM296.517,300.1V265.591l36.07,19.7V319.8ZM372.6,256.7l-34.343,18.759L303.915,256.7l-1.452-.795,35.795-20.511,35.8,20.511ZM338.261,63.183l35.8,20.511-1.453.795-34.343,18.759L303.915,84.488l-1.452-.795ZM190,0l35.792,20.513L191.569,39.207,190,40.063l-1.569-.856-34.223-18.7ZM41.739,63.183l35.8,20.511-1.452.795L41.739,103.247,7.4,84.488l-1.453-.795ZM0,93.388l36.071,19.7V147.6L0,127.9V93.388ZM0,265.594l36.071,19.7v34.51L0,300.1v-34.51Zm47.419,19.7,36.071-19.7V300.1L47.419,319.8V285.3Zm100.836,58.771V332.787l36.071,19.7V387l-36.071-19.7V344.068ZM195.674,387V352.494l36.071-19.7V367.3Zm148.255-67.2V285.293L380,265.591V300.1Zm0-172.206V113.087L380,93.388V127.9Z"/>
  <path id="Shape_65_copy_2" data-name="Shape 65 copy 2" class="cls-1" d="M83.484,127.9L47.413,147.6v-34.51l36.071-19.7V127.9ZM296.517,300.1V265.591l36.07,19.7V319.8ZM372.6,256.7l-34.343,18.759L303.915,256.7l-1.452-.795,35.795-20.511,35.8,20.511ZM41.739,63.183l35.8,20.511-1.452.795L41.739,103.247,7.4,84.488l-1.453-.795ZM0,93.388l36.071,19.7V147.6L0,127.9V93.388ZM343.929,319.8V285.293L380,265.591V300.1Z"/>
  <path id="Shape_65_copy" data-name="Shape 65 copy" class="cls-1" d="M224.343,323.9L190,342.653,155.657,323.9l-1.452-.795L190,302.589l35.795,20.5ZM148.255,64.711V30.2l36.071,19.713v34.5Zm83.49,0-36.071,19.7v-34.5l36.071-19.707v34.5ZM190,0l35.792,20.513L191.569,39.207,190,40.063l-1.569-.856-34.223-18.7ZM148.255,344.068V332.787l36.071,19.7V387l-36.071-19.7V344.068ZM195.674,387V352.494l36.071-19.7V367.3Z"/>
</svg>
