<?xml version="1.0" encoding="UTF-8" standalone="no"?>
<svg
   width="202.94301"
   height="32"
   viewBox="0 0 202.94301 32"
   fill="none"
   version="1.1"
   id="svg22"
>
  <g
     id="g863"
     transform="scale(0.27633851)">
    <path
       d="M 92.3,73.5 V 46.3 L 85.1,36.9 V 21.1 L 62,12.8 V 0 H 30.3 V 12.8 L 7.2,21.1 V 36.9 L 0,46.3 V 73.5 L 7.2,83.2 0,105.6 46.2,115.8 92.3,105.6 85.1,83.2 Z"
       fill="#0057b7"
       id="path2" />
    <path
       d="M 46.2,83.2 C 58.9578,83.2 69.3,72.8578 69.3,60.1 69.3,47.3422 58.9578,37 46.2,37 33.4422,37 23.1,47.3422 23.1,60.1 c 0,12.7578 10.3422,23.1 23.1,23.1 z"
       fill="#000000"
       id="path4" />
    <path
       d="m 178.4,107.9 h -10 v -10.0001 -10 -10 -10 h -10 -10 v 10 10 10 10.0001 h -10 -10 v -10.0001 -10 -10 -10 -10 -10 -10 -10 -10 -10 h 10 10 v 10 10 10 10 h 10 10 v -10 -10 -10 -10 h 10 10 v 10 10 10 10 10 10 10 10 10 10.0001 z"
       fill="#ffd700"
       id="path6" />
    <path
       d="m 256.4,107.9 h -10 -10 -10 -10 -10 v -10.0001 -10 -10 -10 -10 -10 -10 -10 -10 -10 h 10 10 10 10 10 10 v 10 10 h -10 -10 -10 -10 v 10 10 h 10 10 10 10 v 10 10 h -10 -10 -10 -10 v 10 10 h 10 10 10 10 v 10 10.0001 z"
       fill="#0057b7"
       id="path8" />
    <path
       d="m 334.4,107.9 h -10 v -10.0001 -10 -10 -10 h -10 -10 v 10 10 10 10.0001 h -10 -10 v -10.0001 -10 -10 -10 -10 -10 -10 -10 -10 -10 h 10 10 10 10 10 10 v 10 10 10 10 10 10 10 10 10 10.0001 z m -20,-60.0001 h 10 v -10 -10 h -10 -10 v 10 10 z"
       fill="#ff0000"
       id="path10" />
    <path
       d="m 392.4,107.9 h -10 -10 -10 v -10.0001 -10 -10 -10 -10 -10 -10 -10 -10 -10 h 10 10 10 10 v 10 10 h 10 10 v 10 10 10 10 10 10 h -10 -10 v -10 -10 -10 -10 -10 -10 h -10 -10 v 10 10 10 10 10 10 h 10 10 v 10 10.0001 z"
       fill="#ffa500"
       id="path12" />
    <path
       d="m 490.4,107.9 h -10 -10 -10 -10 -10 v -10.0001 -10 -10 -10 -10 -10 -10 -10 -10 -10 h 10 10 v 10 10 10 10 10 10 10 10 h 10 10 10 10 v 10 10.0001 z"
       fill="#008000"
       id="path14" />
    <path
       d="m 568.4,107.9 h -10 v -10.0001 -10 -10 -10 h -10 -10 v 10 10 10 10.0001 h -10 -10 v -10.0001 -10 -10 -10 -10 -10 -10 -10 -10 -10 h 10 10 10 10 10 10 v 10 10 10 10 10 10 10 10 10 10.0001 z m -20,-60.0001 h 10 v -10 -10 h -10 -10 v 10 10 z"
       fill="#0057b7"
       id="path16" />
    <path
       d="m 646.4,107.9 h -10 v -10.0001 -10 -10 -10 -10 -10 h -10 -10 v 10 10 10 10 10 10.0001 h -10 -10 v -10.0001 -10 -10 -10 -10 -10 -10 -10 -10 -10 h 10 10 v 10 10 h 10 10 v -10 -10 h 10 10 v 10 10 10 10 10 10 10 10 10 10.0001 z"
       fill="#4b0082"
       id="path18" />
    <path
       d="m 684.4,107.9 h -10 v -10.0001 -10 -10 -10 -10 -10 -10 -10 -10 -10 h 10 10 10 10 10 10 v 10 10 10 10 10 10 h -10 -10 -10 -10 v 10 10 10 10.0001 z m 20,-60.0001 h 10 v -10 -10 h -10 -10 v 10 10 z"
       fill="#ee82ee"
       id="path20" />
  </g>
</svg>
