<svg xmlns="http://www.w3.org/2000/svg" viewBox="0 0 443.48 273.39"><defs><style>.cls-1{fill:#0fa;}</style></defs><title>Asset 1</title><g id="Layer_2" data-name="Layer 2"><g id="Layer_1-2" data-name="Layer 1"><rect class="cls-1" x="241.08" y="39.39" width="13.04" height="13.04"/><rect class="cls-1" x="195.68" y="150.26" width="26.09" height="13.04"/><rect class="cls-1" x="313.08" y="150.26" width="26.09" height="13.04"/><path class="cls-1" d="M430.43,234.78V156.52h-13v78.26h-13V104.35H378.26V0h-313V104.35H39.13V234.78h-13V156.52H13v78.26H0v25.57H26.09v13H65.22v-13h13v13h39.13v-13h208.7v13h39.13v-13h13v13h39.13v-13h26.09V234.78ZM293.25,13.3h65.22V39.39H339.16V91.57H313.08V39.39H293.25ZM84.55,65.48V13.3h52.18V32.61H110.64v13h26.09V65.48H110.64V91.57H84.55Zm59,84.78v13H104.38v26.09h39.13v39.13H65.25V124.17h78.26Zm6.26-58.69V13.3h26.09V65.48H202V91.57H149.77ZM260.9,150.26v78.26H221.77V189.39H195.68v39.13H156.55v-91.3h13v-13h78.26v13h13Zm-6.78-58.69V65.48h-13V91.57H215V26.35h13v-13h39.13V26.35h13V91.57Zm124.17,58.69v39.13h-13v13h13v26.09H339.16V202.43h-13v-13h-13v39.13H274V124.17H378.29Z"/></g></g></svg>