<svg width="141" height="32" viewBox="0 0 141 32" fill="none" xmlns="http://www.w3.org/2000/svg">
<path d="M25.4969 20.3088V12.7929L23.507 10.1988V5.82788L17.1283 3.53582V0H8.36868V3.53582L1.99001 5.82788V10.1988L0 12.7929V20.3088L1.99001 22.9916L0 29.1749L12.7574 32L25.4969 29.1749L23.507 22.9916L25.4969 20.3088Z" fill="#FFF200"/>
<path d="M12.7756 22.9917C16.2937 22.9917 19.1543 20.1311 19.1543 16.6131C19.1543 13.095 16.2937 10.2344 12.7756 10.2344C9.2576 10.2344 6.39697 13.0772 6.39697 16.6131C6.39697 20.1488 9.23984 22.9917 12.7756 22.9917Z" fill="black"/>
<path d="M41.4884 24.8751H39.7117V23.0984V21.3215V19.5448V17.768H37.935H36.1581V19.5448V21.3215V23.0984V24.8751H34.3814H32.6045V23.0984V21.3215V19.5448V17.768V15.9912V14.2144V12.4376V10.6608V8.88401V7.10722H34.3814H36.1581V8.88401V10.6608V12.4376V14.2144H37.935H39.7117V12.4376V10.6608V8.88401V7.10722H41.4884H43.2653V8.88401V10.6608V12.4376V14.2144V15.9912V17.768V19.5448V21.3215V23.0984V24.8751H41.4884Z" fill="#FFF200"/>
<path d="M55.3463 24.8751H53.5696H51.7927H50.016H48.2391H46.4624V23.0984V21.3215V19.5448V17.768V15.9912V14.2144V12.4376V10.6608V8.88401V7.10722H48.2391H50.016H51.7927H53.5696H55.3463H57.123V8.88401V10.6608H55.3463H53.5696H51.7927H50.016V12.4376V14.2144H51.7927H53.5696H55.3463H57.123V15.9912V17.768H55.3463H53.5696H51.7927H50.016V19.5448V21.3215H51.7927H53.5696H55.3463H57.123V23.0984V24.8751H55.3463Z" fill="#FFF200"/>
<path d="M69.2057 24.8751H67.4288V23.0984V21.3215V19.5448V17.768H65.6521H63.8752V19.5448V21.3215V23.0984V24.8751H62.0985H60.3218V23.0984V21.3215V19.5448V17.768V15.9912V14.2144V12.4376V10.6608V8.88401V7.10722H62.0985H63.8752H65.6521H67.4288H69.2057H70.9824V8.88401V10.6608V12.4376V14.2144V15.9912V17.768V19.5448V21.3215V23.0984V24.8751H69.2057ZM65.6521 14.2144H67.4288V12.4376V10.6608H65.6521H63.8752V12.4376V14.2144H65.6521Z" fill="#FFF200"/>
<path d="M79.5115 24.8751H77.7348H75.958H74.1812V23.0984V21.3215V19.5448V17.768V15.9912V14.2144V12.4376V10.6608V8.88401V7.10722H75.958H77.7348H79.5115H81.2884V8.88401V10.6608H83.0651H84.842V12.4376V14.2144V15.9912V17.768V19.5448V21.3215H83.0651H81.2884V19.5448V17.768V15.9912V14.2144V12.4376V10.6608H79.5115H77.7348V12.4376V14.2144V15.9912V17.768V19.5448V21.3215H79.5115H81.2884V23.0984V24.8751H79.5115Z" fill="#FFF200"/>
<path d="M96.923 24.8751H95.1463H93.3694H91.5927H89.8158H88.0391V23.0984V21.3215V19.5448V17.768V15.9912V14.2144V12.4376V10.6608V8.88401V7.10722H89.8158H91.5927V8.88401V10.6608V12.4376V14.2144V15.9912V17.768V19.5448V21.3215H93.3694H95.1463H96.923H98.6999V23.0984V24.8751H96.923Z" fill="#FFF200"/>
<path d="M110.782 24.8751H109.005V23.0984V21.3215V19.5448V17.768H107.229H105.452V19.5448V21.3215V23.0984V24.8751H103.675H101.898V23.0984V21.3215V19.5448V17.768V15.9912V14.2144V12.4376V10.6608V8.88401V7.10722H103.675H105.452H107.229H109.005H110.782H112.559V8.88401V10.6608V12.4376V14.2144V15.9912V17.768V19.5448V21.3215V23.0984V24.8751H110.782ZM107.229 14.2144H109.005V12.4376V10.6608H107.229H105.452V12.4376V14.2144H107.229Z" fill="#FFF200"/>
<path d="M124.642 24.8751H122.865V23.0984V21.3215V19.5448V17.768V15.9912V14.2144H121.088H119.311V15.9912V17.768V19.5448V21.3215V23.0984V24.8751H117.535H115.758V23.0984V21.3215V19.5448V17.768V15.9912V14.2144V12.4376V10.6608V8.88401V7.10722H117.535H119.311V8.88401V10.6608H121.088H122.865V8.88401V7.10722H124.642H126.419V8.88401V10.6608V12.4376V14.2144V15.9912V17.768V19.5448V21.3215V23.0984V24.8751H124.642Z" fill="#FFF200"/>
<path d="M131.394 24.8751H129.617V23.0984V21.3215V19.5448V17.768V15.9912V14.2144V12.4376V10.6608V8.88401V7.10722H131.394H133.171H134.948H136.724H138.501H140.278V8.88401V10.6608V12.4376V14.2144V15.9912V17.768H138.501H136.724H134.948H133.171V19.5448V21.3215V23.0984V24.8751H131.394ZM134.948 14.2144H136.724V12.4376V10.6608H134.948H133.171V12.4376V14.2144H134.948Z" fill="#FFF200"/>
</svg>
