<?xml version="1.0" encoding="UTF-8" standalone="no"?>
<svg
   version="1.1"
   viewBox="0 0 139.476 23.834195"
   height="23.834194"
   width="139.476"
   id="lokomotive-logo">
  <metadata
     id="metadata19">
  </metadata>
  <defs
     id="defs18" />
  <path
     style="stroke-width:0.0950389"
     d="m 10.025732,0 h 5.764669 l 4.23084,2.2489967 5.829296,12.1971763 -2.636755,9.388021 H 2.8694087 L 0,14.446173 6.0361007,2.2576165 Z"
     fill="#ffe000"
     id="path2-3" />
  <path
     style="stroke-width:0.0950389"
     d="m 11.374142,3.0719179 h 3.188264 l 3.60615,2.0335723 4.355816,9.3406828 -1.994865,6.06195 H 5.6697937 l -2.326549,-6.066322 4.329964,-9.3406159 z"
     fill="#000000"
     id="path4-6" />
  <path
     style="stroke-width:0.0950389"
     d="M 18.280606,9.5172737 16.95358,6.6694386 13.62751,5.1097956 h -1.434704 l -3.2830283,1.559643 -1.318367,2.8435581 4.6013953,0.7022413 h 1.434704 z"
     fill="#ffe000"
     id="path6-7" />
  <path
     style="stroke-width:0.0950389"
     d="m 7.3673167,18.470209 1.994797,0.430809 -0.71089,-2.671157 -2.085272,-0.749667 -0.23696,0.288633 z"
     fill="#ffe000"
     id="path8-5" />
  <path
     style="stroke-width:0.0950389"
     d="m 18.754469,18.470209 -1.99049,0.430809 0.710888,-2.671157 1.981844,-0.749667 0.219729,0.288633 z"
     fill="#ffe000"
     id="path10-3" />
  <path
     style="stroke-width:0.0950389"
     d="m 2.4858537,22.571794 3.18393,-2.063671 H 20.529507 l 3.037439,2.063671 z"
     fill="#000000"
     id="path12-5" />
  <path
     style="stroke-width:0.0950389"
     d="m 2.4858537,22.571794 0.383452,1.2624 H 23.213688 l 0.353258,-1.2624 z"
     fill="#000000"
     id="path14-6" />
  <path
     style="stroke-width:0.0950389"
     d="M 30.032241,20.397689 V 4.7570213 H 33.16814 V 17.716455 h 5.353436 v 2.681234 z"
     fill="#ffe000"
     id="path16-2" />
  <path
     style="stroke-width:0.0950389"
     d="m 49.609462,19.012309 -2.59836,1.497049 h -4.77104 l -2.598359,-1.497049 v -8.401234 l 2.598359,-1.4970604 h 4.77104 l 2.59836,1.4970604 z m -6.898959,-7.284053 v 6.166874 h 3.830251 v -6.166874 z"
     fill="#ffe000"
     id="path18-9" />
  <path
     style="stroke-width:0.0950389"
     d="m 54.917943,4.0866656 v 9.6301794 h 0.04476 L 58.43466,9.2257418 h 3.516624 l -4.009494,4.9826442 4.68151,6.189207 h -3.561478 l -2.911892,-3.954847 -1.231987,1.541719 v 2.413128 H 51.849238 V 4.0866656 Z"
     fill="#ffe000"
     id="path20-1" />
  <path
     style="stroke-width:0.0950389"
     d="m 73.038979,19.012309 -2.59836,1.497049 h -4.77113 l -2.598266,-1.497049 v -8.401234 l 2.598266,-1.4970604 h 4.77113 l 2.59836,1.4970604 z M 66.13993,11.728256 v 6.166874 h 3.830249 v -6.166874 z"
     fill="#ffe000"
     id="path22-2" />
  <path
     style="stroke-width:0.0950389"
     d="m 91.025824,10.611075 v 9.786518 h -3.068707 v -8.669337 h -3.270283 v 8.669337 h -3.0688 V 11.728256 H 78.34775 v 8.669337 H 75.279043 V 9.1140146 h 2.531166 l 0.537541,0.9160884 1.590379,-0.9160884 h 2.150345 l 2.08315,1.2065264 2.105489,-1.2065264 h 2.150351 z"
     fill="#ffe000"
     id="path24" />
  <path
     style="stroke-width:0.0950389"
     d="m 103.23392,19.012309 -2.59836,1.497049 h -4.77094 l -2.59874,-1.497049 v -8.401234 l 2.59874,-1.4970604 h 4.77094 l 2.59836,1.4970604 z m -6.8998,-7.284053 v 6.166874 h 3.831 v -6.166874 z"
     fill="#ffe000"
     id="path26" />
  <path
     style="stroke-width:0.0950389"
     d="M 104.57777,11.839925 V 9.2257238 h 2.06045 V 7.3488513 l 3.0688,-1.765164 v 3.6420365 h 2.46435 v 2.6142012 h -2.46435 v 5.943437 h 2.46435 v 2.614231 h -2.9348 l -2.59835,-1.496956 v -7.060712 z"
     fill="#ffe000"
     id="path28" />
  <path
     style="stroke-width:0.0950389"
     d="M 113.8507,7.1477691 V 4.0866656 h 3.29309 v 3.0611035 z m 3.18095,2.0779727 V 20.397593 h -3.0688 V 9.2257418 Z"
     fill="#ffe000"
     id="path30" />
  <path
     style="stroke-width:0.0950389"
     d="m 120.99666,9.2257138 2.57556,7.3287972 h 0.0447 l 2.59836,-7.3287972 h 3.0688 l -4.14372,11.1718792 h -3.0688 L 117.92788,9.2257138 Z"
     fill="#ffe000"
     id="path32" />
  <path
     style="stroke-width:0.0950389"
     d="m 139.476,17.783458 v 2.614135 h -6.69738 l -2.59836,-1.496956 v -8.289562 l 2.59836,-1.4970604 h 4.09902 l 2.59836,1.4970604 v 5.340131 h -6.22694 v 1.832252 z m -6.22694,-6.055202 v 1.921587 h 3.15814 v -1.921587 z"
     fill="#ffe000"
     id="path34" />
</svg>
