<?xml version="1.0" encoding="UTF-8" standalone="no"?>
<svg
   version="1.1"
   viewBox="0 0 168.32001 32.000001"
   height="32"
   width="168.32001"
   id="lokomotive-logo">
  <defs
     id="defs18" />
  <g
     transform="scale(0.0625)"
     id="g2424"
     style="fill:none">
    <path
       d="m 575.488,254.634 v 157.014 h -71.68 V 49.1521 h 71.68 V 193.195 H 716.8 V 49.1521 h 71.68 V 411.648 H 716.8 V 254.634 Z"
       fill="#fff200"
       id="path2386" />
    <path
       d="m 1058.13,348.843 v 62.805 H 904.533 L 845.141,374.784 V 184.32 l 59.392,-34.133 h 94.208 l 59.389,34.133 V 307.2 H 915.456 v 42.325 H 1058.13 Z M 915.456,209.579 v 44.373 h 72.363 v -44.373 z"
       fill="#fff200"
       id="path2388" />
    <path
       d="m 1159.17,411.648 -59.39,-34.133 v -88.747 l 59.39,-34.133 h 83.28 v -41.643 h -117.42 v -60.075 h 128.35 l 59.39,34.134 v 225.28 h -34.14 l -36.18,-21.163 -36.18,21.163 h -47.1 z m 10.92,-103.765 v 45.056 h 72.36 v -45.056 z"
       fill="#fff200"
       id="path2390" />
    <path
       d="m 1424.04,149.504 h 67.59 l 36.18,21.163 V 34.1333 h 70.31 V 412.33 h -58.03 l -12.28,-21.162 -36.18,21.162 h -67.59 l -59.39,-34.133 V 185.003 Z m 103.77,202.069 V 209.579 h -92.85 v 141.994 z"
       fill="#fff200"
       id="path2392" />
    <path
       d="M 1709.4,411.648 1650,374.784 V 34.1333 h 70.32 V 349.525 h 51.2 v 62.805 h -62.12 z"
       fill="#fff200"
       id="path2394" />
    <path
       d="m 1841.15,411.648 -59.39,-34.133 v -88.747 l 59.39,-34.133 h 83.29 v -41.643 h -117.42 v -60.075 h 128.34 l 59.39,34.134 v 225.28 h -34.13 l -36.18,-21.163 -36.18,21.163 h -47.11 z m 10.92,-103.765 v 45.056 h 72.37 v -45.056 z"
       fill="#fff200"
       id="path2396" />
    <path
       d="m 2407.76,183.637 v 228.011 h -70.31 V 209.579 h -75.09 v 202.069 h -70.32 V 209.579 h -75.09 v 202.069 h -70.32 V 149.504 h 58.03 l 12.29,21.163 36.18,-21.163 h 49.15 l 47.79,27.989 48.47,-27.989 h 49.15 z"
       fill="#fff200"
       id="path2398" />
    <path
       d="m 2633.73,411.648 h -67.59 l -36.18,-21.163 V 512 h -70.31 V 149.504 h 58.02 l 12.29,21.163 36.18,-21.163 h 67.59 l 59.39,34.133 V 376.832 Z M 2529.96,209.579 v 141.994 h 92.84 V 209.579 Z"
       fill="#fff200"
       id="path2400" />
    <path
       d="M 359.765,286.72 V 180.224 L 331.776,144.043 V 81.92 L 241.664,49.8346 V 0 H 118.101 V 49.8346 L 27.9892,81.92 v 62.123 L 0,180.224 V 286.72 L 27.9892,324.267 0,411.648 179.541,451.243 359.765,411.648 331.776,324.267 Z"
       fill="#fff200"
       id="path2402" />
    <path
       d="m 179.542,324.949 c 49.767,0 90.112,-40.344 90.112,-90.112 0,-49.767 -40.345,-90.112 -90.112,-90.112 -49.767,0 -90.1121,40.345 -90.1121,90.112 0,49.768 40.3451,90.112 90.1121,90.112 z"
       fill="#000000"
       id="path2404" />
  </g>
</svg>
