<?xml version="1.0" encoding="UTF-8" standalone="no"?>
<svg
   version="1.1"
   viewBox="0 0 187.26172 32.000001"
   height="32"
   width="187.26172"
   id="lokomotive-logo">
  <metadata
     id="metadata19">
  </metadata>
  <defs
     id="defs18" />
  <path
     style="stroke-width:0.1276"
     d="m 13.460637,0 h 7.739695 L 26.880696,3.0195229 34.70716,19.39556 31.167029,32 H 3.8524936 L 0,19.39556 8.1041223,3.0310959 Z"
     fill="#ffe000"
     id="path2-3" />
  <path
     style="stroke-width:0.1276"
     d="m 15.271024,4.1243842 h 4.280592 l 4.841648,2.7302922 5.848157,12.5408836 -2.678323,8.138828 H 7.6123153 L 4.48867,19.38969 10.302118,6.8488963 Z"
     fill="#000000"
     id="path4-6" />
  <path
     style="stroke-width:0.1276"
     d="M 24.543703,12.777976 22.762026,8.9544473 18.296415,6.8604568 h -1.926246 l -4.407822,2.0939905 -1.770052,3.8177867 6.177874,0.942835 h 1.926246 z"
     fill="#ffe000"
     id="path6-7" />
  <path
     style="stroke-width:0.1276"
     d="M 9.8914247,24.798266 12.569657,25.376674 11.61521,21.790354 8.8155049,20.783845 8.4973604,21.171366 Z"
     fill="#ffe000"
     id="path8-5" />
  <path
     style="stroke-width:0.1276"
     d="m 25.179916,24.798266 -2.672449,0.578408 0.954444,-3.58632 2.660842,-1.006509 0.29501,0.387521 z"
     fill="#ffe000"
     id="path10-3" />
  <path
     style="stroke-width:0.1276"
     d="M 3.3375292,30.30509 7.6123018,27.534388 H 27.563098 l 4.078093,2.770702 z"
     fill="#000000"
     id="path12-5" />
  <path
     style="stroke-width:0.1276"
     d="M 3.3375292,30.30509 3.8523552,32 H 31.166903 l 0.474288,-1.69491 z"
     fill="#000000"
     id="path14-6" />
  <path
     style="stroke-width:0.1276"
     d="M 40.321553,27.386117 V 6.3868189 h 4.210286 V 23.786269 h 7.187571 v 3.599848 z"
     fill="#ffe000"
     id="path16-2" />
  <path
     style="stroke-width:0.1276"
     d="m 66.606103,25.526094 -3.488581,2.009951 h -6.40564 l -3.48858,-2.009951 V 14.246523 l 3.48858,-2.009966 h 6.40564 l 3.488581,2.009966 z M 57.343499,15.74646 v 8.2797 h 5.142529 v -8.2797 z"
     fill="#ffe000"
     id="path18-9" />
  <path
     style="stroke-width:0.1276"
     d="M 73.733317,5.4867934 V 18.416357 h 0.0601 l 4.661479,-6.029794 h 4.721451 l -5.383182,6.689741 6.285436,8.309684 H 79.29693 l -3.909532,-5.309812 -1.654077,2.069925 v 3.239887 H 69.613246 V 5.4867934 Z"
     fill="#ffe000"
     id="path20-1" />
  <path
     style="stroke-width:0.1276"
     d="m 98.062781,25.526094 -3.488582,2.009951 H 88.168438 L 84.679982,25.526094 V 14.246523 l 3.488456,-2.009966 h 6.405761 l 3.488582,2.009966 z M 88.800056,15.74646 v 8.2797 h 5.142526 v -8.2797 z"
     fill="#ffe000"
     id="path22-2" />
  <path
     style="stroke-width:0.1276"
     d="M 122.21208,14.246523 V 27.385988 H 118.092 V 15.74646 h -4.3907 v 11.639528 h -4.1202 V 15.74646 h -4.39072 v 11.639528 h -4.12007 V 12.236557 h 3.39837 l 0.7217,1.229948 2.13526,-1.229948 h 2.88708 l 2.79685,1.619893 2.82684,-1.619893 h 2.88709 z"
     fill="#ffe000"
     id="path24" />
  <path
     style="stroke-width:0.1276"
     d="m 138.60278,25.526094 -3.48858,2.009951 h -6.40551 L 125.2196,25.526094 V 14.246523 l 3.48909,-2.009966 h 6.40551 l 3.48858,2.009966 z m -9.26374,-9.779634 v 8.2797 h 5.14354 v -8.2797 z"
     fill="#ffe000"
     id="path26" />
  <path
     style="stroke-width:0.1276"
     d="m 140.40704,15.896388 v -3.509849 h 2.76638 V 9.8666328 l 4.12019,-2.3699248 v 4.889831 h 3.30866 v 3.509849 h -3.30866 v 7.979711 h 3.30866 v 3.509889 h -3.94029 l -3.48856,-2.009826 v -9.479774 z"
     fill="#ffe000"
     id="path28" />
  <path
     style="stroke-width:0.1276"
     d="M 152.85696,9.5966581 V 5.4867934 h 4.42133 v 4.1098647 z m 4.27077,2.7899049 v 14.999425 h -4.1202 V 12.386563 Z"
     fill="#ffe000"
     id="path30" />
  <path
     style="stroke-width:0.1276"
     d="m 162.45119,12.386525 3.45797,9.839708 h 0.06 l 3.48859,-9.839708 h 4.1202 l -5.5634,14.999463 h -4.1202 l -5.56334,-14.999463 z"
     fill="#ffe000"
     id="path32" />
  <path
     style="stroke-width:0.1276"
     d="m 187.26172,23.876227 v 3.509761 h -8.99197 l -3.48858,-2.009826 V 14.246523 l 3.48858,-2.009966 h 5.50338 l 3.48859,2.009966 v 7.169707 h -8.36035 v 2.459997 z m -8.36035,-8.129767 v 2.57994 h 4.24015 v -2.57994 z"
     fill="#ffe000"
     id="path34" />
</svg>
