<svg width="173" height="32" viewBox="0 0 173 32" fill="none" xmlns="http://www.w3.org/2000/svg">
<path d="M40.65 15.9518V25.5807H36.1565V3.11328H40.65V12.1002H49.4764V3.11328H53.9699V25.5807H49.4764V15.9518H40.65Z" fill="#FFD31D"/>
<path d="M70.8204 21.8254V25.5807H61.2237L57.5005 23.4303V11.5225L61.2237 9.37207H67.0973L70.8204 11.5225V19.1935H61.8977V21.8254H70.8204ZM61.8977 13.1273V15.8876H66.4233V13.1273H61.8977Z" fill="#FFD31D"/>
<path d="M77.1114 25.7412L73.3882 23.5907V18.038L77.1114 15.8876H82.311V13.2878H74.993V9.53253H82.985L86.7082 11.683V25.7412H84.5898L82.311 24.4252L80.0321 25.7412H77.1114ZM77.7854 19.2577V22.0501H82.311V19.2577H77.7854Z" fill="#FFD31D"/>
<path d="M93.6409 9.37206H97.8455L100.124 10.688V2.15039H104.522V25.7412H100.895L100.124 24.4252L97.8455 25.7412H93.6409L89.9177 23.5907V11.5225L93.6409 9.37206ZM100.124 21.9859V13.1273H94.3149V21.9859H100.124Z" fill="#FFD31D"/>
<path d="M111.454 25.5807L107.731 23.4302V2.15039H112.128V21.8254H115.338V25.5807H111.454Z" fill="#FFD31D"/>
<path d="M119.703 25.7412L115.98 23.5907V18.038L119.703 15.8876H124.903V13.2878H117.585V9.53253H125.577L129.3 11.683V25.7412H127.182L124.903 24.4252L122.624 25.7412H119.703ZM120.377 19.2577V22.0501H124.903V19.2577H120.377Z" fill="#FFD31D"/>
<path d="M155.073 11.5225V25.5807H150.676V13.1273H145.99V25.5807H141.593V13.1273H136.907V25.5807H132.51V9.37207H136.136L136.907 10.688L139.186 9.37207H142.267L145.252 11.1053L148.269 9.37207H151.35L155.073 11.5225Z" fill="#FFD31D"/>
<path d="M169.164 25.7412H164.959L162.68 24.4252V32H158.283V9.37207H161.91L162.68 10.688L164.959 9.37207H169.164L172.887 11.5225V23.5907L169.164 25.7412ZM162.68 13.1273V21.9859H168.49V13.1273H162.68Z" fill="#FFD31D"/>
<path d="M7.39819 0H15.2618V3.11334L20.7021 5.13541V8.98696L22.1785 11.2658V17.9258L20.8144 20.2849L22.1785 24.5216L11.0893 28.2126L0.0802407 24.5216L1.38014 20.2849L0 17.9258V11.2658L1.74925 8.98696V5.13541L7.39819 3.11334V0Z" fill="#FFD31D"/>
<path d="M11.1054 8.90674C13.962 8.90674 16.305 11.2658 16.289 14.0903C16.2729 16.9308 13.9299 19.2899 11.0894 19.2899C8.24888 19.3059 5.82561 16.8827 5.87375 14.0582C5.9219 11.1856 8.24888 8.90674 11.1054 8.90674Z" fill="black"/>
</svg>
