<?xml version="1.0" standalone="no"?>
<!DOCTYPE svg PUBLIC "-//W3C//DTD SVG 20010904//EN"
 "http://www.w3.org/TR/2001/REC-SVG-20010904/DTD/svg10.dtd">
<svg version="1.0" xmlns="http://www.w3.org/2000/svg"
 width="928.000000pt" height="928.000000pt" viewBox="0 0 928.000000 928.000000"
 preserveAspectRatio="xMidYMid meet">
<metadata>
Created by potrace 1.11, written by Peter Selinger 2001-2013
</metadata>
<g transform="translate(0.000000,928.000000) scale(0.100000,-0.100000)"
fill="#000000" stroke="none">
<path d="M3326 8785 c1 -354 -2 -498 -10 -503 -10 -6 -190 -71 -211 -75 -5 -2
-15 -6 -22 -10 -6 -4 -45 -18 -85 -32 -40 -13 -136 -47 -213 -75 -77 -29 -156
-56 -175 -62 -19 -6 -39 -13 -45 -16 -5 -4 -14 -7 -20 -8 -5 -2 -55 -19 -110
-39 -186 -68 -380 -137 -420 -150 -22 -8 -65 -23 -95 -35 -30 -12 -62 -23 -70
-25 -8 -2 -86 -30 -172 -61 l-158 -57 -1 -46 c0 -25 0 -95 0 -156 1 -60 1
-150 0 -200 0 -49 0 -97 0 -105 0 -8 0 -46 0 -85 -1 -38 -1 -77 0 -85 3 -41
-1 -135 -5 -142 -3 -4 0 -8 7 -8 8 0 9 -3 0 -13 -6 -8 -9 -16 -6 -18 2 -3 4
-34 4 -69 1 -36 1 -76 2 -90 0 -14 1 -29 1 -35 -1 -5 -1 -48 -2 -94 -1 -84 -6
-98 -52 -156 -5 -5 -31 -39 -59 -75 -27 -36 -59 -75 -70 -86 -10 -12 -19 -27
-19 -33 0 -6 -4 -11 -10 -11 -5 0 -10 -7 -10 -15 0 -8 -4 -15 -8 -15 -5 0 -29
-28 -54 -62 -25 -35 -55 -74 -67 -88 -31 -38 -35 -42 -61 -80 -13 -19 -27 -37
-30 -40 -3 -3 -19 -23 -35 -45 -17 -22 -32 -42 -35 -45 -3 -3 -16 -19 -28 -37
l-22 -31 0 -1064 0 -1063 26 -45 c15 -25 35 -60 45 -77 138 -239 209 -359 219
-370 5 -7 10 -15 10 -18 0 -9 110 -196 127 -216 14 -17 13 -37 -7 -99 -6 -19
-13 -42 -15 -50 -3 -13 -45 -148 -76 -245 -9 -28 -14 -44 -24 -85 -2 -8 -4
-16 -5 -17 -2 -2 -3 -6 -5 -10 -1 -5 -4 -15 -7 -23 -3 -8 -10 -31 -16 -50 -21
-70 -56 -185 -57 -190 0 -3 -15 -52 -33 -110 -18 -58 -42 -136 -54 -175 -11
-38 -24 -79 -28 -90 -10 -26 -70 -229 -70 -237 0 -3 8 -8 18 -10 9 -3 22 -6
27 -7 6 -2 18 -7 28 -13 10 -5 26 -11 35 -13 24 -5 563 -185 587 -195 11 -5
157 -55 325 -110 168 -55 312 -103 320 -106 8 -3 16 -5 18 -4 1 0 16 -7 32
-15 17 -9 30 -13 30 -9 0 4 7 1 15 -6 8 -7 15 -10 15 -7 0 2 37 -8 82 -25 46
-16 90 -31 98 -33 8 -2 184 -61 390 -130 206 -70 380 -128 385 -129 6 -2 17
-6 25 -9 14 -5 89 -30 100 -32 3 -1 12 -4 20 -8 8 -3 71 -24 140 -47 69 -22
134 -45 145 -49 11 -5 65 -23 120 -40 55 -17 109 -35 120 -40 11 -4 38 -14 60
-20 22 -7 49 -16 60 -21 26 -11 266 -91 282 -94 7 -1 15 -5 19 -8 8 -9 55 1
71 14 7 6 13 8 13 5 0 -3 26 3 58 14 31 11 64 22 72 24 8 2 69 23 135 45 66
23 125 43 130 44 6 2 17 6 25 9 8 3 78 26 155 52 77 25 147 48 155 52 8 3 20
7 27 9 34 7 180 58 191 67 6 5 12 7 12 4 0 -3 33 6 73 19 39 14 77 27 82 28 6
2 17 6 25 9 18 7 451 150 465 153 6 2 186 62 400 134 215 72 397 133 406 135
8 2 32 10 52 19 21 8 40 15 42 15 3 0 55 16 115 36 60 20 112 36 115 36 3 -1
19 6 35 14 16 8 31 15 32 14 4 -2 346 109 373 121 11 5 58 21 105 35 211 67
214 69 191 127 -11 28 -24 61 -26 68 0 3 -20 66 -44 140 -23 74 -52 164 -63
200 -11 36 -24 74 -29 85 -9 23 -32 95 -35 110 -1 6 -10 33 -19 60 -10 28 -18
55 -19 60 -1 6 -11 35 -21 65 -11 30 -20 57 -20 60 -1 3 -4 12 -7 20 -3 8 -25
76 -48 150 -23 74 -44 142 -47 150 -3 8 -7 20 -9 25 -1 6 -9 29 -17 52 -13 33
-13 48 -4 72 6 17 15 31 19 31 4 0 8 4 8 9 0 4 23 48 52 97 28 49 56 99 62
111 6 13 14 23 19 23 4 0 7 5 7 11 0 7 20 45 44 86 25 40 48 82 51 93 4 11 11
20 16 20 5 0 9 4 9 9 0 13 112 205 124 213 13 9 18 2141 5 2173 -5 11 -45 74
-89 140 -44 66 -84 127 -87 135 -4 8 -11 20 -16 25 -4 6 -37 55 -72 110 -35
55 -68 105 -72 111 -4 5 -12 18 -18 27 -5 9 -32 52 -60 94 l-50 78 0 612 c0
419 -4 616 -11 623 -6 6 -19 12 -30 14 -17 4 -240 85 -289 106 -33 13 -89 34
-100 37 -5 1 -71 25 -145 53 -157 60 -211 80 -225 84 -5 2 -23 8 -38 14 -16 7
-31 12 -34 12 -3 0 -19 6 -36 14 -18 7 -126 48 -242 91 -115 42 -221 82 -235
88 -14 6 -27 11 -30 12 -16 3 -87 29 -95 34 -5 3 -17 6 -25 8 -8 1 -23 7 -35
13 -11 6 -49 21 -85 33 -36 12 -70 26 -75 29 -7 4 -11 171 -10 502 l0 496
-1260 0 -1260 0 1 -495z"/>
</g>
</svg>
