<svg width="735" height="116" viewBox="0 0 735 116" fill="none" xmlns="http://www.w3.org/2000/svg">
<path d="M92.3 73.5V46.3L85.1 36.9V21.1L62 12.8V0H30.3V12.8L7.2 21.1V36.9L0 46.3V73.5L7.2 83.2L0 105.6L46.2 115.8L92.3 105.6L85.1 83.2L92.3 73.5Z" fill="black"/>
<path d="M46.2 83.2C58.9578 83.2 69.3 72.8578 69.3 60.1C69.3 47.3422 58.9578 37 46.2 37C33.4422 37 23.1 47.3422 23.1 60.1C23.1 72.8578 33.4422 83.2 46.2 83.2Z" fill="#FAEC20"/>
<path d="M178.4 107.9H168.4V97.8999V87.8999V77.8999V67.8999H158.4H148.4V77.8999V87.8999V97.8999V107.9H138.4H128.4V97.8999V87.8999V77.8999V67.8999V57.8999V47.8999V37.8999V27.8999V17.8999V7.8999H138.4H148.4V17.8999V27.8999V37.8999V47.8999H158.4H168.4V37.8999V27.8999V17.8999V7.8999H178.4H188.4V17.8999V27.8999V37.8999V47.8999V57.8999V67.8999V77.8999V87.8999V97.8999V107.9H178.4Z" fill="black"/>
<path d="M256.4 107.9H246.4H236.4H226.4H216.4H206.4V97.8999V87.8999V77.8999V67.8999V57.8999V47.8999V37.8999V27.8999V17.8999V7.8999H216.4H226.4H236.4H246.4H256.4H266.4V17.8999V27.8999H256.4H246.4H236.4H226.4V37.8999V47.8999H236.4H246.4H256.4H266.4V57.8999V67.8999H256.4H246.4H236.4H226.4V77.8999V87.8999H236.4H246.4H256.4H266.4V97.8999V107.9H256.4Z" fill="black"/>
<path d="M334.4 107.9H324.4V97.8999V87.8999V77.8999V67.8999H314.4H304.4V77.8999V87.8999V97.8999V107.9H294.4H284.4V97.8999V87.8999V77.8999V67.8999V57.8999V47.8999V37.8999V27.8999V17.8999V7.8999H294.4H304.4H314.4H324.4H334.4H344.4V17.8999V27.8999V37.8999V47.8999V57.8999V67.8999V77.8999V87.8999V97.8999V107.9H334.4ZM314.4 47.8999H324.4V37.8999V27.8999H314.4H304.4V37.8999V47.8999H314.4Z" fill="black"/>
<path d="M392.4 107.9H382.4H372.4H362.4V97.8999V87.8999V77.8999V67.8999V57.8999V47.8999V37.8999V27.8999V17.8999V7.8999H372.4H382.4H392.4H402.4V17.8999V27.8999H412.4H422.4V37.8999V47.8999V57.8999V67.8999V77.8999V87.8999H412.4H402.4V77.8999V67.8999V57.8999V47.8999V37.8999V27.8999H392.4H382.4V37.8999V47.8999V57.8999V67.8999V77.8999V87.8999H392.4H402.4V97.8999V107.9H392.4Z" fill="black"/>
<path d="M490.4 107.9H480.4H470.4H460.4H450.4H440.4V97.8999V87.8999V77.8999V67.8999V57.8999V47.8999V37.8999V27.8999V17.8999V7.8999H450.4H460.4V17.8999V27.8999V37.8999V47.8999V57.8999V67.8999V77.8999V87.8999H470.4H480.4H490.4H500.4V97.8999V107.9H490.4Z" fill="black"/>
<path d="M568.4 107.9H558.4V97.8999V87.8999V77.8999V67.8999H548.4H538.4V77.8999V87.8999V97.8999V107.9H528.4H518.4V97.8999V87.8999V77.8999V67.8999V57.8999V47.8999V37.8999V27.8999V17.8999V7.8999H528.4H538.4H548.4H558.4H568.4H578.4V17.8999V27.8999V37.8999V47.8999V57.8999V67.8999V77.8999V87.8999V97.8999V107.9H568.4ZM548.4 47.8999H558.4V37.8999V27.8999H548.4H538.4V37.8999V47.8999H548.4Z" fill="black"/>
<path d="M646.4 107.9H636.4V97.8999V87.8999V77.8999V67.8999V57.8999V47.8999H626.4H616.4V57.8999V67.8999V77.8999V87.8999V97.8999V107.9H606.4H596.4V97.8999V87.8999V77.8999V67.8999V57.8999V47.8999V37.8999V27.8999V17.8999V7.8999H606.4H616.4V17.8999V27.8999H626.4H636.4V17.8999V7.8999H646.4H656.4V17.8999V27.8999V37.8999V47.8999V57.8999V67.8999V77.8999V87.8999V97.8999V107.9H646.4Z" fill="black"/>
<path d="M684.4 107.9H674.4V97.8999V87.8999V77.8999V67.8999V57.8999V47.8999V37.8999V27.8999V17.8999V7.8999H684.4H694.4H704.4H714.4H724.4H734.4V17.8999V27.8999V37.8999V47.8999V57.8999V67.8999H724.4H714.4H704.4H694.4V77.8999V87.8999V97.8999V107.9H684.4ZM704.4 47.8999H714.4V37.8999V27.8999H704.4H694.4V37.8999V47.8999H704.4Z" fill="black"/>
</svg>
